<svg xmlns="http://www.w3.org/2000/svg" xmlns:xlink="http://www.w3.org/1999/xlink" width="1000" zoomAndPan="magnify" viewBox="0 0 750 149.999998" height="200" preserveAspectRatio="xMidYMid meet" version="1.0"><defs><g/></defs><g fill="#ff8300" fill-opacity="1"><g transform="translate(0.00000625, 108.289207)"><g><path d="M 10.359375 0 L 10.359375 -39.0625 L 0.890625 -39.0625 L 0.890625 -48.734375 L 13.90625 -48.734375 L 10.359375 -45.28125 L 10.359375 -48.4375 C 10.359375 -55.34375 12.210938 -60.535156 15.921875 -64.015625 C 19.640625 -67.503906 25.316406 -69.445312 32.953125 -69.84375 L 38.375 -70.140625 L 39.265625 -60.375 L 33.546875 -60.078125 C 31.171875 -59.953125 29.210938 -59.539062 27.671875 -58.84375 C 26.128906 -58.15625 24.976562 -57.132812 24.21875 -55.78125 C 23.457031 -54.4375 23.078125 -52.679688 23.078125 -50.515625 L 23.078125 -47.453125 L 21.40625 -48.734375 L 36.890625 -48.734375 L 36.890625 -39.0625 L 23.078125 -39.0625 L 23.078125 0 Z M 10.359375 0 "/></g></g></g><g fill="#ff8300" fill-opacity="1"><g transform="translate(38.375708, 108.289207)"><g><path d="M 31.859375 0.984375 C 26.078125 0.984375 21.128906 -0.03125 17.015625 -2.0625 C 12.910156 -4.101562 9.769531 -7.03125 7.59375 -10.84375 C 5.425781 -14.664062 4.34375 -19.175781 4.34375 -24.375 C 4.34375 -29.300781 5.378906 -33.65625 7.453125 -37.4375 C 9.523438 -41.21875 12.429688 -44.207031 16.171875 -46.40625 C 19.921875 -48.613281 24.296875 -49.71875 29.296875 -49.71875 C 33.972656 -49.71875 38.019531 -48.710938 41.4375 -46.703125 C 44.851562 -44.703125 47.5 -41.84375 49.375 -38.125 C 51.25 -34.414062 52.1875 -29.992188 52.1875 -24.859375 L 52.1875 -21.015625 L 14.59375 -21.015625 L 14.59375 -28.609375 L 43.109375 -28.609375 L 41.53125 -27.03125 C 41.53125 -31.570312 40.492188 -35.007812 38.421875 -37.34375 C 36.347656 -39.675781 33.40625 -40.84375 29.59375 -40.84375 C 26.894531 -40.84375 24.554688 -40.234375 22.578125 -39.015625 C 20.609375 -37.796875 19.082031 -36.066406 18 -33.828125 C 16.914062 -31.597656 16.375 -28.875 16.375 -25.65625 L 16.375 -24.65625 C 16.375 -21.039062 16.960938 -18.066406 18.140625 -15.734375 C 19.328125 -13.398438 21.101562 -11.671875 23.46875 -10.546875 C 25.84375 -9.429688 28.738281 -8.875 32.15625 -8.875 C 34.789062 -8.875 37.472656 -9.234375 40.203125 -9.953125 C 42.929688 -10.679688 45.414062 -11.898438 47.65625 -13.609375 L 51.203125 -4.9375 C 48.765625 -3.03125 45.785156 -1.566406 42.265625 -0.546875 C 38.753906 0.472656 35.285156 0.984375 31.859375 0.984375 Z M 31.859375 0.984375 "/></g></g></g><g fill="#ff8300" fill-opacity="1"><g transform="translate(94.7061, 108.289207)"><g><path d="M 7 0 L 7 -48.734375 L 18.9375 -48.734375 L 18.9375 -36.890625 L 18.546875 -36.890625 C 19.535156 -40.710938 21.394531 -43.707031 24.125 -45.875 C 26.851562 -48.039062 30.390625 -49.257812 34.734375 -49.53125 L 39.359375 -49.921875 L 40.25 -38.671875 L 32.265625 -37.984375 C 28.253906 -37.585938 25.191406 -36.300781 23.078125 -34.125 C 20.972656 -31.957031 19.921875 -29.066406 19.921875 -25.453125 L 19.921875 0 Z M 7 0 "/></g></g></g><g fill="#ff8300" fill-opacity="1"><g transform="translate(136.14002, 108.289207)"><g><path d="M 26.25 0.984375 C 21.832031 0.984375 17.976562 -0.0664062 14.6875 -2.171875 C 11.40625 -4.273438 8.859375 -7.234375 7.046875 -11.046875 C 5.242188 -14.859375 4.34375 -19.300781 4.34375 -24.375 C 4.34375 -29.5 5.242188 -33.953125 7.046875 -37.734375 C 8.859375 -41.515625 11.390625 -44.457031 14.640625 -46.5625 C 17.898438 -48.664062 21.703125 -49.71875 26.046875 -49.71875 C 30.054688 -49.71875 33.523438 -48.765625 36.453125 -46.859375 C 39.378906 -44.953125 41.4375 -42.453125 42.625 -39.359375 L 42.03125 -39.359375 L 42.03125 -69.546875 L 54.859375 -69.546875 L 54.859375 0 L 42.8125 0 L 42.8125 -10.15625 L 43.21875 -10.15625 C 41.96875 -6.675781 39.84375 -3.945312 36.84375 -1.96875 C 33.851562 0 30.320312 0.984375 26.25 0.984375 Z M 29.703125 -8.78125 C 33.578125 -8.78125 36.628906 -10.128906 38.859375 -12.828125 C 41.097656 -15.523438 42.21875 -19.375 42.21875 -24.375 C 42.21875 -29.4375 41.097656 -33.28125 38.859375 -35.90625 C 36.628906 -38.539062 33.578125 -39.859375 29.703125 -39.859375 C 25.878906 -39.859375 22.832031 -38.539062 20.5625 -35.90625 C 18.300781 -33.28125 17.171875 -29.4375 17.171875 -24.375 C 17.171875 -19.375 18.300781 -15.523438 20.5625 -12.828125 C 22.832031 -10.128906 25.878906 -8.78125 29.703125 -8.78125 Z M 29.703125 -8.78125 "/></g></g></g><g fill="#ff8300" fill-opacity="1"><g transform="translate(197.994944, 108.289207)"><g><path d="M 6.109375 -58.796875 L 6.109375 -71.421875 L 20.625 -71.421875 L 20.625 -58.796875 Z M 7 0 L 7 -48.734375 L 19.828125 -48.734375 L 19.828125 0 Z M 7 0 "/></g></g></g><g fill="#ff8300" fill-opacity="1"><g transform="translate(224.828337, 108.289207)"><g><path d="M 7 0 L 7 -48.734375 L 19.140625 -48.734375 L 19.140625 -38.875 L 18.640625 -38.875 C 20.160156 -42.351562 22.460938 -45.03125 25.546875 -46.90625 C 28.640625 -48.78125 32.128906 -49.71875 36.015625 -49.71875 C 39.953125 -49.71875 43.238281 -48.976562 45.875 -47.5 C 48.507812 -46.019531 50.484375 -43.765625 51.796875 -40.734375 C 53.109375 -37.710938 53.765625 -33.898438 53.765625 -29.296875 L 53.765625 0 L 40.9375 0 L 40.9375 -28.703125 C 40.9375 -31.140625 40.625 -33.144531 40 -34.71875 C 39.375 -36.300781 38.40625 -37.488281 37.09375 -38.28125 C 35.78125 -39.070312 34.070312 -39.46875 31.96875 -39.46875 C 29.59375 -39.46875 27.484375 -38.941406 25.640625 -37.890625 C 23.804688 -36.835938 22.378906 -35.351562 21.359375 -33.4375 C 20.335938 -31.53125 19.828125 -29.363281 19.828125 -26.9375 L 19.828125 0 Z M 7 0 "/></g></g></g><g fill="#ff8300" fill-opacity="1"><g transform="translate(285.400788, 108.289207)"><g><path d="M 23.578125 0.984375 C 20.023438 0.984375 16.847656 0.3125 14.046875 -1.03125 C 11.253906 -2.382812 9.050781 -4.226562 7.4375 -6.5625 C 5.832031 -8.894531 5.03125 -11.507812 5.03125 -14.40625 C 5.03125 -18.019531 6.015625 -20.894531 7.984375 -23.03125 C 9.960938 -25.175781 13.085938 -26.738281 17.359375 -27.71875 C 21.640625 -28.707031 27.234375 -29.203125 34.140625 -29.203125 L 39.953125 -29.203125 L 39.953125 -21.703125 L 34.53125 -21.703125 C 31.4375 -21.703125 28.820312 -21.585938 26.6875 -21.359375 C 24.550781 -21.128906 22.804688 -20.765625 21.453125 -20.265625 C 20.109375 -19.773438 19.125 -19.101562 18.5 -18.25 C 17.875 -17.394531 17.5625 -16.34375 17.5625 -15.09375 C 17.5625 -12.851562 18.347656 -11.109375 19.921875 -9.859375 C 21.503906 -8.609375 23.675781 -7.984375 26.4375 -7.984375 C 28.675781 -7.984375 30.679688 -8.507812 32.453125 -9.5625 C 34.234375 -10.613281 35.664062 -12.046875 36.75 -13.859375 C 37.832031 -15.671875 38.375 -17.691406 38.375 -19.921875 L 38.375 -30.984375 C 38.375 -34.265625 37.535156 -36.59375 35.859375 -37.96875 C 34.179688 -39.351562 31.503906 -40.046875 27.828125 -40.046875 C 25.128906 -40.046875 22.347656 -39.648438 19.484375 -38.859375 C 16.617188 -38.078125 13.675781 -36.796875 10.65625 -35.015625 L 7.109375 -43.796875 C 9.015625 -45.046875 11.179688 -46.097656 13.609375 -46.953125 C 16.046875 -47.816406 18.59375 -48.492188 21.25 -48.984375 C 23.914062 -49.472656 26.5 -49.71875 29 -49.71875 C 33.675781 -49.71875 37.625 -48.992188 40.84375 -47.546875 C 44.0625 -46.097656 46.492188 -43.894531 48.140625 -40.9375 C 49.785156 -37.976562 50.609375 -34.132812 50.609375 -29.40625 L 50.609375 0 L 39.265625 0 L 39.265625 -10.15625 L 39.5625 -10.15625 C 38.90625 -7.988281 37.835938 -6.066406 36.359375 -4.390625 C 34.878906 -2.710938 33.066406 -1.394531 30.921875 -0.4375 C 28.785156 0.507812 26.335938 0.984375 23.578125 0.984375 Z M 23.578125 0.984375 "/></g></g></g><g fill="#ff8300" fill-opacity="1"><g transform="translate(342.81635, 108.289207)"><g><path d="M 7 0 L 7 -48.734375 L 19.140625 -48.734375 L 19.140625 -38.875 L 18.640625 -38.875 C 20.160156 -42.351562 22.460938 -45.03125 25.546875 -46.90625 C 28.640625 -48.78125 32.128906 -49.71875 36.015625 -49.71875 C 39.953125 -49.71875 43.238281 -48.976562 45.875 -47.5 C 48.507812 -46.019531 50.484375 -43.765625 51.796875 -40.734375 C 53.109375 -37.710938 53.765625 -33.898438 53.765625 -29.296875 L 53.765625 0 L 40.9375 0 L 40.9375 -28.703125 C 40.9375 -31.140625 40.625 -33.144531 40 -34.71875 C 39.375 -36.300781 38.40625 -37.488281 37.09375 -38.28125 C 35.78125 -39.070312 34.070312 -39.46875 31.96875 -39.46875 C 29.59375 -39.46875 27.484375 -38.941406 25.640625 -37.890625 C 23.804688 -36.835938 22.378906 -35.351562 21.359375 -33.4375 C 20.335938 -31.53125 19.828125 -29.363281 19.828125 -26.9375 L 19.828125 0 Z M 7 0 "/></g></g></g><g fill="#ff8300" fill-opacity="1"><g transform="translate(403.388782, 108.289207)"><g><path d="M 26.25 0.984375 C 21.832031 0.984375 17.976562 -0.0664062 14.6875 -2.171875 C 11.40625 -4.273438 8.859375 -7.234375 7.046875 -11.046875 C 5.242188 -14.859375 4.34375 -19.300781 4.34375 -24.375 C 4.34375 -29.5 5.242188 -33.953125 7.046875 -37.734375 C 8.859375 -41.515625 11.390625 -44.457031 14.640625 -46.5625 C 17.898438 -48.664062 21.703125 -49.71875 26.046875 -49.71875 C 30.054688 -49.71875 33.523438 -48.765625 36.453125 -46.859375 C 39.378906 -44.953125 41.4375 -42.453125 42.625 -39.359375 L 42.03125 -39.359375 L 42.03125 -69.546875 L 54.859375 -69.546875 L 54.859375 0 L 42.8125 0 L 42.8125 -10.15625 L 43.21875 -10.15625 C 41.96875 -6.675781 39.84375 -3.945312 36.84375 -1.96875 C 33.851562 0 30.320312 0.984375 26.25 0.984375 Z M 29.703125 -8.78125 C 33.578125 -8.78125 36.628906 -10.128906 38.859375 -12.828125 C 41.097656 -15.523438 42.21875 -19.375 42.21875 -24.375 C 42.21875 -29.4375 41.097656 -33.28125 38.859375 -35.90625 C 36.628906 -38.539062 33.578125 -39.859375 29.703125 -39.859375 C 25.878906 -39.859375 22.832031 -38.539062 20.5625 -35.90625 C 18.300781 -33.28125 17.171875 -29.4375 17.171875 -24.375 C 17.171875 -19.375 18.300781 -15.523438 20.5625 -12.828125 C 22.832031 -10.128906 25.878906 -8.78125 29.703125 -8.78125 Z M 29.703125 -8.78125 "/></g></g></g><g fill="#ffffff" fill-opacity="1"><g transform="translate(449.290444, 107.75958)"><g><path d="M 8.09375 0 L 8.09375 -69.546875 L 16.46875 -69.546875 L 16.46875 -26.828125 L 16.765625 -26.828125 L 38.875 -48.34375 L 49.328125 -48.34375 L 23.078125 -22.890625 L 23.1875 -27.03125 L 51.59375 0 L 40.9375 0 L 16.765625 -22.5 L 16.46875 -22.5 L 16.46875 0 Z M 8.09375 0 "/></g></g></g><g fill="#ffffff" fill-opacity="1"><g transform="translate(500.491165, 107.75958)"><g><path d="M 28.703125 0.890625 C 23.898438 0.890625 19.738281 -0.144531 16.21875 -2.21875 C 12.707031 -4.289062 10 -7.203125 8.09375 -10.953125 C 6.1875 -14.703125 5.234375 -19.140625 5.234375 -24.265625 C 5.234375 -29.328125 6.1875 -33.71875 8.09375 -37.4375 C 10 -41.15625 12.707031 -44.050781 16.21875 -46.125 C 19.738281 -48.195312 23.898438 -49.234375 28.703125 -49.234375 C 33.503906 -49.234375 37.664062 -48.195312 41.1875 -46.125 C 44.707031 -44.050781 47.421875 -41.15625 49.328125 -37.4375 C 51.234375 -33.71875 52.1875 -29.328125 52.1875 -24.265625 C 52.1875 -19.140625 51.234375 -14.703125 49.328125 -10.953125 C 47.421875 -7.203125 44.707031 -4.289062 41.1875 -2.21875 C 37.664062 -0.144531 33.503906 0.890625 28.703125 0.890625 Z M 28.703125 -6.015625 C 33.378906 -6.015625 37.0625 -7.625 39.75 -10.84375 C 42.445312 -14.070312 43.796875 -18.546875 43.796875 -24.265625 C 43.796875 -29.992188 42.445312 -34.4375 39.75 -37.59375 C 37.0625 -40.75 33.378906 -42.328125 28.703125 -42.328125 C 24.035156 -42.328125 20.351562 -40.75 17.65625 -37.59375 C 14.957031 -34.4375 13.609375 -29.992188 13.609375 -24.265625 C 13.609375 -18.546875 14.972656 -14.070312 17.703125 -10.84375 C 20.429688 -7.625 24.097656 -6.015625 28.703125 -6.015625 Z M 28.703125 -6.015625 "/></g></g></g><g fill="#ffffff" fill-opacity="1"><g transform="translate(557.907002, 107.75958)"><g><path d="M 8.09375 0 L 8.09375 -48.34375 L 15.984375 -48.34375 L 15.984375 -37.09375 L 15.59375 -37.09375 C 16.707031 -40.84375 18.691406 -43.71875 21.546875 -45.71875 C 24.410156 -47.726562 28.046875 -48.898438 32.453125 -49.234375 L 36.109375 -49.53125 L 36.890625 -42.03125 L 30.78125 -41.4375 C 26.238281 -41.039062 22.734375 -39.578125 20.265625 -37.046875 C 17.804688 -34.515625 16.578125 -31.207031 16.578125 -27.125 L 16.578125 0 Z M 8.09375 0 "/></g></g></g><g fill="#ffffff" fill-opacity="1"><g transform="translate(596.184238, 107.75958)"><g><path d="M 8.09375 17.765625 L 8.09375 -48.34375 L 16.078125 -48.34375 L 16.078125 -37.390625 L 15.59375 -37.390625 C 16.84375 -41.078125 19.023438 -43.972656 22.140625 -46.078125 C 25.265625 -48.179688 28.96875 -49.234375 33.25 -49.234375 C 37.65625 -49.234375 41.484375 -48.195312 44.734375 -46.125 C 47.992188 -44.050781 50.523438 -41.15625 52.328125 -37.4375 C 54.140625 -33.71875 55.046875 -29.296875 55.046875 -24.171875 C 55.046875 -19.171875 54.15625 -14.78125 52.375 -11 C 50.601562 -7.21875 48.085938 -4.289062 44.828125 -2.21875 C 41.578125 -0.144531 37.71875 0.890625 33.25 0.890625 C 29.039062 0.890625 25.40625 -0.160156 22.34375 -2.265625 C 19.289062 -4.367188 17.140625 -7.164062 15.890625 -10.65625 L 16.46875 -10.65625 L 16.46875 17.765625 Z M 31.46875 -5.921875 C 36.132812 -5.921875 39.816406 -7.53125 42.515625 -10.75 C 45.210938 -13.976562 46.5625 -18.484375 46.5625 -24.265625 C 46.5625 -30.054688 45.210938 -34.53125 42.515625 -37.6875 C 39.816406 -40.84375 36.132812 -42.421875 31.46875 -42.421875 C 26.863281 -42.421875 23.195312 -40.84375 20.46875 -37.6875 C 17.738281 -34.53125 16.375 -30.054688 16.375 -24.265625 C 16.375 -18.484375 17.738281 -13.976562 20.46875 -10.75 C 23.195312 -7.53125 26.863281 -5.921875 31.46875 -5.921875 Z M 31.46875 -5.921875 "/></g></g></g><g fill="#ffffff" fill-opacity="1"><g transform="translate(656.461013, 107.75958)"><g><path d="M 30.6875 0.890625 C 25.425781 0.890625 20.882812 -0.109375 17.0625 -2.109375 C 13.25 -4.117188 10.320312 -7 8.28125 -10.75 C 6.25 -14.5 5.234375 -18.972656 5.234375 -24.171875 C 5.234375 -29.097656 6.203125 -33.4375 8.140625 -37.1875 C 10.078125 -40.9375 12.820312 -43.878906 16.375 -46.015625 C 19.925781 -48.160156 24.070312 -49.234375 28.8125 -49.234375 C 33.414062 -49.234375 37.3125 -48.242188 40.5 -46.265625 C 43.6875 -44.296875 46.132812 -41.519531 47.84375 -37.9375 C 49.550781 -34.351562 50.40625 -30.0625 50.40625 -25.0625 L 50.40625 -22.09375 L 11.546875 -22.09375 L 11.546875 -27.828125 L 44.890625 -27.828125 L 43.21875 -26.25 C 43.21875 -31.507812 42 -35.601562 39.5625 -38.53125 C 37.125 -41.457031 33.570312 -42.921875 28.90625 -42.921875 C 25.6875 -42.921875 22.90625 -42.175781 20.5625 -40.6875 C 18.226562 -39.207031 16.4375 -37.132812 15.1875 -34.46875 C 13.9375 -31.8125 13.3125 -28.675781 13.3125 -25.0625 L 13.3125 -24.265625 C 13.3125 -20.253906 13.984375 -16.898438 15.328125 -14.203125 C 16.679688 -11.503906 18.671875 -9.445312 21.296875 -8.03125 C 23.929688 -6.625 27.09375 -5.921875 30.78125 -5.921875 C 33.539062 -5.921875 36.269531 -6.332031 38.96875 -7.15625 C 41.664062 -7.976562 44.234375 -9.375 46.671875 -11.34375 L 49.53125 -5.421875 C 47.15625 -3.390625 44.273438 -1.828125 40.890625 -0.734375 C 37.503906 0.347656 34.101562 0.890625 30.6875 0.890625 Z M 30.6875 0.890625 "/></g></g></g><g fill="#ffffff" fill-opacity="1"><g transform="translate(711.706507, 107.75958)"><g><path d="M 8.09375 0 L 8.09375 -48.34375 L 15.984375 -48.34375 L 15.984375 -37.09375 L 15.59375 -37.09375 C 16.707031 -40.84375 18.691406 -43.71875 21.546875 -45.71875 C 24.410156 -47.726562 28.046875 -48.898438 32.453125 -49.234375 L 36.109375 -49.53125 L 36.890625 -42.03125 L 30.78125 -41.4375 C 26.238281 -41.039062 22.734375 -39.578125 20.265625 -37.046875 C 17.804688 -34.515625 16.578125 -31.207031 16.578125 -27.125 L 16.578125 0 Z M 8.09375 0 "/></g></g></g></svg>