<svg xmlns="http://www.w3.org/2000/svg" version="1.1" xmlns:xlink="http://www.w3.org/1999/xlink" xmlns:svgjs="http://svgjs.dev/svgjs" width="1500" height="1500" viewBox="0 0 1500 1500"><rect width="1500" height="1500" fill="#ececea"></rect><g transform="matrix(0.6666666666666666,0,0,0.6666666666666666,249.39393939393938,687.4562534280759)"><svg viewBox="0 0 396 50" data-background-color="#ececea" preserveAspectRatio="xMidYMid meet" height="189" width="1500" xmlns="http://www.w3.org/2000/svg" xmlns:xlink="http://www.w3.org/1999/xlink"><g id="tight-bounds" transform="matrix(1,0,0,1,0.2400000000000091,-0.1810529476491638)"><svg viewBox="0 0 395.52 50.362105895298306" height="50.362105895298306" width="395.52"><g><svg viewBox="0 0 500.4680294262664 63.725282906494996" height="50.362105895298306" width="395.52"><g><rect width="5.718220673631522" height="63.725282906494996" x="84.26064468553665" y="0" fill="#009b7d" opacity="1" stroke-width="0" stroke="transparent" fill-opacity="1" class="rect-qz-0" data-fill-palette-color="primary" rx="1%" id="qz-0" data-palette-color="#009b7d"></rect></g><g transform="matrix(1,0,0,1,104.94802942626639,0.1585206042450089)"><svg viewBox="0 0 395.52 63.40824169800498" height="63.40824169800498" width="395.52"><g id="textblocktransform"><svg viewBox="0 0 395.52 63.40824169800498" height="63.40824169800498" width="395.52" id="textblock"><g><svg viewBox="0 0 395.52 63.40824169800498" height="63.40824169800498" width="395.52"><g transform="matrix(1,0,0,1,0,0)"><svg width="395.52" viewBox="-0.2 -37.8 245.07999999999998 39.3" height="63.40824169800498" data-palette-color="#009b7d"><path d="M27.7 1.4L21.4-16.65 15.2 0.7Q14.85 0.9 14.08 1.13 13.3 1.35 12.85 1.35L12.85 1.35 3.65-22.5-0.2-23.5Q-0.35-24.45 0.05-25.25L0.05-25.25Q1.4-25.2 3.08-25.1 4.75-25 6.15-25L6.15-25Q7.6-25 9.33-25.1 11.05-25.2 12.45-25.25L12.45-25.25Q12.6-24.3 12.35-23.5L12.35-23.5Q11.45-23.3 10.53-23.08 9.6-22.85 8.9-22.5L8.9-22.5 12.6-12.05Q13.2-10.35 13.75-8.5 14.3-6.65 14.7-4.95L14.7-4.95 14.85-4.95Q15.3-6.7 15.83-8.5 16.35-10.3 16.9-11.85L16.9-11.85 20.1-20.4 19.4-22.5 15.55-23.5Q15.4-24.45 15.8-25.25L15.8-25.25Q17.15-25.2 18.75-25.1 20.35-25 21.75-25L21.75-25Q23.2-25 24.65-25.1 26.1-25.2 27.5-25.25L27.5-25.25Q27.65-24.3 27.4-23.5L27.4-23.5Q26.5-23.3 25.55-23.1 24.6-22.9 23.95-22.5L23.95-22.5 27.3-11.6Q27.85-9.75 28.4-8 28.95-6.25 29.4-4.45L29.4-4.45 29.55-4.45Q29.95-6.15 30.45-7.83 30.95-9.5 31.5-11.2L31.5-11.2 35.05-22.5 31.2-23.5Q31.05-24.45 31.45-25.25L31.45-25.25Q32.8-25.2 33.93-25.1 35.05-25 36.45-25L36.45-25Q37.9-25 39.13-25.1 40.35-25.2 41.75-25.25L41.75-25.25Q41.9-24.3 41.65-23.5L41.65-23.5Q40.7-23.3 39.78-23.1 38.85-22.9 38.1-22.5L38.1-22.5 30.1 0.7Q29.75 0.9 28.95 1.15 28.15 1.4 27.7 1.4L27.7 1.4ZM48.75-13.5L48.75-12.5Q48.75-7.45 50.77-4.67 52.8-1.9 56.3-1.9L56.3-1.9Q57.85-1.9 58.9-2.08 59.95-2.25 60.97-2.75 62-3.25 63.3-4.15L63.3-4.15Q64.1-3.8 64.2-2.95L64.2-2.95Q62.65-1.15 60.5-0.15 58.35 0.85 56.15 0.85L56.15 0.85Q52.35 0.85 49.5-0.75 46.65-2.35 45.05-5.35 43.45-8.35 43.45-12.5L43.45-12.5Q43.45-16.75 45.12-19.73 46.8-22.7 49.62-24.28 52.45-25.85 55.9-25.85L55.9-25.85Q60.35-25.85 62.47-22.88 64.6-19.9 64.6-15.2L64.6-15.2Q64.6-14.85 64.6-14.55 64.6-14.25 64.55-13.9L64.55-13.9 63.85-13.35 48.75-13.5ZM55.85-23.7L55.85-23.7Q54.4-23.7 52.97-22.8 51.55-21.9 50.45-20.1 49.35-18.3 48.95-15.55L48.95-15.55 59.85-16.15Q59.85-20 59.02-21.85 58.2-23.7 55.85-23.7ZM74.69-37.25L74.69-22.75 74.94-22.5Q76.94-24.25 78.84-24.88 80.75-25.5 82.44-25.5L82.44-25.5Q85.69-25.5 88.05-23.9 90.39-22.3 91.67-19.38 92.94-16.45 92.94-12.45L92.94-12.45Q92.94-8.1 91.22-5.1 89.5-2.1 86.47-0.55 83.44 1 79.44 1L79.44 1Q77.39 1 74.72 0.5 72.05 0 69.94-0.9L69.94-0.9 69.94-34.3 65.8-34.7Q65.64-35.7 66.05-36.45L66.05-36.45Q67.84-36.7 69.5-37.05 71.14-37.4 72.69-37.8L72.69-37.8Q73.64-37.75 74.69-37.25L74.69-37.25ZM74.94-19.6L74.94-2.15Q76.05-1.65 77.14-1.33 78.25-1 79.94-1L79.94-1Q83.5-1 85.55-4 87.59-7 87.59-12.45L87.59-12.45Q87.59-17.7 85.62-20.13 83.64-22.55 80.94-22.55L80.94-22.55Q79.69-22.55 78.5-22.08 77.3-21.6 76.34-20.93 75.39-20.25 74.94-19.6L74.94-19.6ZM107.14 1L107.14 1Q104.34 1 102.02-0.68 99.69-2.35 98.32-5.3 96.94-8.25 96.94-12.05L96.94-12.05Q96.94-16.4 98.49-19.5 100.04-22.6 102.87-24.28 105.69-25.95 109.54-25.95L109.54-25.95Q110.94-25.95 112.37-25.6 113.79-25.25 114.89-24.7L114.89-24.7 115.04-24.7 115.04-34.3 110.89-34.7Q110.74-35.7 111.14-36.45L111.14-36.45Q114.74-37 117.89-37.8L117.89-37.8Q118.84-37.75 119.89-37.25L119.89-37.25 119.89-2.4Q120.34-2 121.39-1.75 122.44-1.5 123.39-1.4L123.39-1.4Q123.54-0.45 123.14 0.35L123.14 0.35Q122.34 0.5 121.22 0.6 120.09 0.7 118.94 0.7L118.94 0.7Q117.29 0.7 116.09 0.4L116.09 0.4Q115.69-0.25 115.47-0.9 115.24-1.55 115.14-2.25L115.14-2.25 114.89-2.25Q112.79-0.45 111.02 0.28 109.24 1 107.14 1ZM109.19-1.9L109.19-1.9Q111.14-1.9 112.54-2.73 113.94-3.55 114.89-4.55L114.89-4.55 114.89-21.95Q113.94-22.8 112.67-23.18 111.39-23.55 109.94-23.55L109.94-23.55Q106.04-23.55 104.14-20.55 102.24-17.55 102.24-12.5L102.24-12.5Q102.24-7.35 104.02-4.63 105.79-1.9 109.19-1.9ZM131.39-13.5L131.39-12.5Q131.39-7.45 133.41-4.67 135.44-1.9 138.94-1.9L138.94-1.9Q140.49-1.9 141.54-2.08 142.59-2.25 143.62-2.75 144.64-3.25 145.94-4.15L145.94-4.15Q146.74-3.8 146.84-2.95L146.84-2.95Q145.29-1.15 143.14-0.15 140.99 0.85 138.79 0.85L138.79 0.85Q134.99 0.85 132.14-0.75 129.29-2.35 127.69-5.35 126.09-8.35 126.09-12.5L126.09-12.5Q126.09-16.75 127.77-19.73 129.44-22.7 132.26-24.28 135.09-25.85 138.54-25.85L138.54-25.85Q142.99-25.85 145.12-22.88 147.24-19.9 147.24-15.2L147.24-15.2Q147.24-14.85 147.24-14.55 147.24-14.25 147.19-13.9L147.19-13.9 146.49-13.35 131.39-13.5ZM138.49-23.7L138.49-23.7Q137.04-23.7 135.62-22.8 134.19-21.9 133.09-20.1 131.99-18.3 131.59-15.55L131.59-15.55 142.49-16.15Q142.49-20 141.66-21.85 140.84-23.7 138.49-23.7ZM162.44 1.5L152.54-22.5 148.69-23.5Q148.54-24.45 148.94-25.25L148.94-25.25Q150.29-25.2 151.96-25.1 153.64-25 155.04-25L155.04-25Q156.49-25 158.29-25.1 160.09-25.2 161.49-25.25L161.49-25.25Q161.64-24.3 161.39-23.5L161.39-23.5Q160.49-23.3 159.61-23.1 158.74-22.9 157.94-22.5L157.94-22.5 162.24-11.5Q162.94-9.8 163.46-8.1 163.99-6.4 164.34-4.7L164.34-4.7 164.49-4.7Q164.89-6.15 165.26-7.53 165.64-8.9 166.14-10.35L166.14-10.35 170.89-22.5 166.94-23.5Q166.79-24.45 167.19-25.25L167.19-25.25Q168.54-25.2 169.74-25.1 170.94-25 172.34-25L172.34-25Q173.79-25 174.96-25.1 176.14-25.2 177.54-25.25L177.54-25.25Q177.69-24.3 177.44-23.5L177.44-23.5Q176.49-23.3 175.56-23.1 174.64-22.9 173.89-22.5L173.89-22.5 164.69 0.85Q164.34 1.05 163.61 1.28 162.89 1.5 162.44 1.5L162.44 1.5ZM187.44-24.95L187.44-2.5 190.79-1.5Q190.94-0.55 190.54 0.25L190.54 0.25Q189.19 0.15 187.76 0.08 186.34 0 184.94 0L184.94 0Q183.54 0 181.89 0.08 180.24 0.15 178.84 0.25L178.84 0.25Q178.69-0.7 178.94-1.5L178.94-1.5Q179.89-1.75 180.81-1.95 181.74-2.15 182.44-2.5L182.44-2.5 182.44-22 178.29-22.4Q178.14-23.4 178.54-24.15L178.54-24.15Q180.34-24.4 182.16-24.75 183.99-25.1 185.54-25.5L185.54-25.5Q186.04-25.45 186.49-25.33 186.94-25.2 187.44-24.95L187.44-24.95ZM184.09-30.05L184.09-30.05Q183.24-30.05 182.54-30.6 181.84-31.15 181.44-31.95 181.04-32.75 181.04-33.45L181.04-33.45Q181.04-34.1 181.59-34.77 182.14-35.45 182.96-35.93 183.79-36.4 184.59-36.4L184.59-36.4Q185.49-36.4 186.19-35.83 186.89-35.25 187.26-34.48 187.64-33.7 187.64-33L187.64-33Q187.64-32.35 187.11-31.65 186.59-30.95 185.76-30.5 184.94-30.05 184.09-30.05ZM201.48-25.05L201.33-21.65 201.38-21.6Q203.78-24 206.33-24.9 208.88-25.8 210.78-25.8L210.78-25.8Q214.03-25.8 215.91-23.95 217.78-22.1 217.78-18.55L217.78-18.55 217.83-2.5 221.33-1.5Q221.48-0.55 221.08 0.25L221.08 0.25Q219.73 0.15 218.23 0.08 216.73 0 215.33 0L215.33 0Q213.93 0 212.38 0.08 210.83 0.15 209.43 0.25L209.43 0.25Q209.28-0.7 209.53-1.5L209.53-1.5Q210.53-1.7 211.31-1.95 212.08-2.2 212.83-2.5L212.83-2.5 212.83-16.3Q212.83-19.7 211.78-21 210.73-22.3 208.43-22.3L208.43-22.3Q206.58-22.3 204.83-21.58 203.08-20.85 201.73-19.3L201.73-19.3 201.73-2.5 205.08-1.5Q205.23-0.55 204.83 0.25L204.83 0.25Q203.48 0.15 202.06 0.08 200.63 0 199.23 0L199.23 0Q197.83 0 196.18 0.08 194.53 0.15 193.13 0.25L193.13 0.25Q192.98-0.7 193.23-1.5L193.23-1.5Q194.13-1.75 195.03-1.98 195.93-2.2 196.73-2.5L196.73-2.5 196.73-22 192.58-22.4Q192.43-23.4 192.83-24.15L192.83-24.15Q194.68-24.45 196.43-24.8 198.18-25.15 199.78-25.5L199.78-25.5Q200.63-25.45 201.48-25.05L201.48-25.05ZM229.03-13.5L229.03-12.5Q229.03-7.45 231.06-4.67 233.08-1.9 236.58-1.9L236.58-1.9Q238.13-1.9 239.18-2.08 240.23-2.25 241.26-2.75 242.28-3.25 243.58-4.15L243.58-4.15Q244.38-3.8 244.48-2.95L244.48-2.95Q242.93-1.15 240.78-0.15 238.63 0.85 236.43 0.85L236.43 0.85Q232.63 0.85 229.78-0.75 226.93-2.35 225.33-5.35 223.73-8.35 223.73-12.5L223.73-12.5Q223.73-16.75 225.41-19.73 227.08-22.7 229.91-24.28 232.73-25.85 236.18-25.85L236.18-25.85Q240.63-25.85 242.76-22.88 244.88-19.9 244.88-15.2L244.88-15.2Q244.88-14.85 244.88-14.55 244.88-14.25 244.83-13.9L244.83-13.9 244.13-13.35 229.03-13.5ZM236.13-23.7L236.13-23.7Q234.68-23.7 233.26-22.8 231.83-21.9 230.73-20.1 229.63-18.3 229.23-15.55L229.23-15.55 240.13-16.15Q240.13-20 239.31-21.85 238.48-23.7 236.13-23.7Z" opacity="1" transform="matrix(1,0,0,1,0,0)" fill="#009b7d" class="wordmark-text-0" data-fill-palette-color="primary" id="text-0"></path></svg></g></svg></g></svg></g></svg></g><g transform="matrix(1,0,0,1,0,0.1585206042450089)"><svg viewBox="0 0 69.29148061843843 63.40824169800498" height="63.40824169800498" width="69.29148061843843"><g><svg xmlns:x="http://ns.adobe.com/Extensibility/1.0/" xmlns:i="http://ns.adobe.com/AdobeIllustrator/10.0/" xmlns:graph="http://ns.adobe.com/Graphs/1.0/" xmlns="http://www.w3.org/2000/svg" xmlns:xlink="http://www.w3.org/1999/xlink" version="1.1" x="0" y="0" viewBox="2.3 6.3999999999999995 95.4 87.30000000000001" enable-background="new 0 0 100 100" xml:space="preserve" height="63.40824169800498" width="69.29148061843843" class="icon-icon-0" data-fill-palette-color="accent" id="icon-0"><g fill="#ffbf5d" data-fill-palette-color="accent"><g fill="#ffbf5d" data-fill-palette-color="accent"><path d="M10 75.9h31.4v8.6h-6.1c-1 0-1.9 0.8-1.9 1.9v5.4c0 1 0.8 1.9 1.9 1.9h29.5c1 0 1.9-0.8 1.9-1.9v-5.4c0-1-0.8-1.9-1.9-1.9h-6.1v-8.6H90c4.3 0 7.7-3.5 7.7-7.7V14.1c0-4.3-3.5-7.7-7.7-7.7H10c-4.3 0-7.7 3.5-7.7 7.7v54.1C2.3 72.5 5.7 75.9 10 75.9zM12.8 16.9h74.5v48.4H12.8V16.9zM50 22.7c-10.2 0-18.4 8.3-18.4 18.4 0 10.2 8.3 18.4 18.4 18.4s18.4-8.3 18.4-18.4C68.4 31 60.2 22.7 50 22.7zM44.6 28.5c-1.1 1.6-2.2 3.5-3 6H38C39.5 31.8 41.8 29.7 44.6 28.5zM36.8 45c-0.4-1.2-0.6-2.5-0.6-3.9s0.2-2.7 0.6-3.9H41c-0.2 1.2-0.3 2.5-0.3 3.9s0.1 2.7 0.3 3.9H36.8zM38 47.8h3.6c0.7 2.4 1.8 4.4 3 6C41.8 52.5 39.5 50.4 38 47.8zM48.6 54.3c-1.3-1.3-3-3.5-4.1-6.5h4.1V54.3zM48.6 45h-4.8c-0.2-1.2-0.4-2.5-0.4-3.9 0-1.4 0.1-2.7 0.4-3.9h4.9V45zM48.6 34.5h-4.1c1.1-3 2.8-5.2 4.1-6.5V34.5zM62 34.5h-3.6c-0.7-2.4-1.8-4.4-3-6C58.2 29.7 60.5 31.8 62 34.5zM51.4 28c1.3 1.3 3 3.5 4.1 6.5h-4.1V28zM51.4 37.2h4.8c0.2 1.2 0.4 2.5 0.4 3.9 0 1.4-0.1 2.7-0.4 3.9h-4.9V37.2zM51.4 47.8h4.1c-1.1 3-2.8 5.2-4.1 6.5V47.8zM55.4 53.7c1.1-1.6 2.2-3.5 3-6H62C60.5 50.4 58.2 52.5 55.4 53.7zM63.7 41.1c0 1.4-0.2 2.7-0.6 3.9H59c0.2-1.2 0.3-2.5 0.3-3.9s-0.1-2.7-0.3-3.9h4.1C63.5 38.5 63.7 39.8 63.7 41.1z" fill="#ffbf5d" data-fill-palette-color="accent"></path></g></g></svg><g></g></g></svg></g></svg></g><defs></defs></svg><rect width="395.52" height="50.362105895298306" fill="none" stroke="none" visibility="hidden"></rect></g></svg></g></svg>